<?xml version="1.0" encoding="UTF-8" standalone="no"?>
<!-- Created with Inkscape (http://www.inkscape.org/) -->

<svg
   xmlns:dc="http://purl.org/dc/elements/1.1/"
   xmlns:cc="http://creativecommons.org/ns#"
   xmlns:rdf="http://www.w3.org/1999/02/22-rdf-syntax-ns#"
   xmlns:svg="http://www.w3.org/2000/svg"
   xmlns="http://www.w3.org/2000/svg"
   xmlns:sodipodi="http://sodipodi.sourceforge.net/DTD/sodipodi-0.dtd"
   xmlns:inkscape="http://www.inkscape.org/namespaces/inkscape"
   width="138.32967mm"
   height="44.000072mm"
   viewBox="0 0 138.32967 44.000072"
   version="1.1"
   id="svg8"
   inkscape:version="0.92.4 (5da689c313, 2019-01-14)"
   sodipodi:docname="logo.svg">
  <defs
     id="defs2" />
  <sodipodi:namedview
     id="base"
     pagecolor="#ffffff"
     bordercolor="#666666"
     borderopacity="1.0"
     inkscape:pageopacity="0.0"
     inkscape:pageshadow="2"
     inkscape:zoom="1.4"
     inkscape:cx="334.27032"
     inkscape:cy="-3.1737154"
     inkscape:document-units="mm"
     inkscape:current-layer="layer1"
     showgrid="false"
     fit-margin-top="0"
     fit-margin-left="0"
     fit-margin-right="0"
     fit-margin-bottom="0"
     inkscape:window-width="1366"
     inkscape:window-height="705"
     inkscape:window-x="-8"
     inkscape:window-y="-8"
     inkscape:window-maximized="1" />
  <metadata
     id="metadata5">
    <rdf:RDF>
      <cc:Work
         rdf:about="">
        <dc:format>image/svg+xml</dc:format>
        <dc:type
           rdf:resource="http://purl.org/dc/dcmitype/StillImage" />
        <dc:title></dc:title>
      </cc:Work>
    </rdf:RDF>
  </metadata>
  <g
     inkscape:label="Layer 1"
     inkscape:groupmode="layer"
     id="layer1"
     transform="translate(-35.163234,-24.609378)">
    <g
       id="g21"
       transform="translate(-4.5357143,-86.178571)">
      <path
         style="fill:#777165;fill-opacity:1;stroke-width:0.26458332"
         d="m 85.611611,154.21612 c -1.969783,-0.52232 -5.238406,-2.75008 -7.226313,-4.92517 -7.445082,-8.1461 -4.58842,-32.8026 4.288494,-37.01497 12.162404,-5.77144 23.116978,5.91732 21.992228,23.46617 -0.88192,13.76019 -8.602385,21.24548 -19.054409,18.47397 z m 7.354113,-8.08335 c 2.796098,-1.36266 3.446761,-3.88722 3.305958,-12.82706 -0.176438,-11.20221 -2.969734,-15.42009 -8.60619,-12.99535 -6.397038,2.75193 -6.452365,23.67568 -0.06951,26.28523 0.819235,0.33494 4.358788,0.0299 5.369738,-0.46282 z m 39.046756,8.11896 -1.48873,-0.0945 -0.16201,-0.97995 c -0.0891,-0.53898 -0.16332,-2.12317 -0.16492,-3.52043 l -0.003,-2.54048 -2.18282,-0.16992 c -1.20054,-0.0934 -5.66539,-0.17063 -9.92187,-0.17151 l -7.73907,-0.002 v -2.78807 -2.78806 l 3.78626,-5.74475 c 4.29809,-6.52134 9.41756,-13.86435 13.91437,-19.95782 l 3.06917,-4.1589 3.8134,-0.008 3.81341,-0.008 -0.16813,14.15521 -0.16813,14.15521 1.77868,0.004 c 3.12805,0.006 2.96931,-0.18494 2.96931,3.57805 v 3.25538 l -1.78594,0.1675 c -0.98227,0.0921 -2.02406,0.1909 -2.3151,0.2195 -0.49815,0.0489 -0.53347,0.27301 -0.60258,3.8223 l -0.0734,3.77031 -2.44013,-0.05 c -1.34208,-0.0275 -3.11006,-0.0926 -3.92885,-0.14453 z m -1.81858,-22.03044 c 0,-3.92907 -0.0511,-7.14375 -0.11359,-7.14375 -0.13583,0 -10.99891,13.99122 -10.99891,14.16616 0,0.0667 2.50032,0.12134 5.55625,0.12134 h 5.55625 z m 29.36875,21.95086 c -11.55423,-0.95806 -15.55498,-15.04669 -6.02618,-21.22115 l 1.31605,-0.85277 -0.61149,-0.40149 c -8.31138,-5.45709 -5.91877,-17.02572 4.04514,-19.55887 11.79844,-2.99955 19.83432,4.95073 15.82777,15.65918 -0.54349,1.45261 -3.00554,4.15965 -3.7832,4.15965 -0.16597,0 0.70683,0.66662 1.93955,1.48138 4.44928,2.94071 5.30742,4.28327 5.49258,8.5931 0.37864,8.81323 -6.11241,13.14328 -18.20022,12.14097 z m 6.6111,-7.00237 c 4.52682,-2.35638 2.27515,-9.296 -2.99798,-9.23976 -7.14605,0.0762 -8.10742,8.19576 -1.14091,9.63591 1.30405,0.26958 3.21051,0.0871 4.13889,-0.39615 z m -1.33781,-21.1567 c 3.71259,-1.91985 2.80545,-7.12858 -1.40586,-8.07235 -4.54656,-1.01891 -7.76773,5.08912 -3.9894,7.56477 1.35806,0.88984 4.14842,1.15235 5.39526,0.50758 z m -125.126626,24.5306 c 0.0046,-4.93711 -0.211961,-4.49962 4.02785,-8.13594 9.657953,-8.28322 13.735208,-13.65621 14.139131,-18.63247 0.378942,-4.6685 -5.476876,-5.86294 -9.964378,-2.03248 -3.717832,3.17349 -10.12247,-1.08291 -7.188643,-4.77743 6.109364,-7.69342 17.235178,-7.3457 22.407688,0.70033 4.220779,6.56557 1.45287,14.07737 -9.238704,25.07278 l -2.89431,2.97657 2.88704,5.2e-4 c 1.587871,2.7e-4 5.476649,0.0789 8.641727,0.17443 l 5.754687,0.17378 v 3.79432 3.79433 h -14.2875 -14.2875 l 0.0029,-3.10886 z"
         id="path29"
         inkscape:connector-curvature="0" />
      <path
         style="fill:#777165;fill-opacity:1;stroke-width:0.26458332"
         d="m 85.852813,154.22164 c -8.354708,-1.51726 -12.146555,-9.90518 -11.26118,-24.91077 0.759621,-12.87429 6.754027,-19.27177 16.890336,-18.02609 11.456351,1.4079 17.200491,21.59541 10.243101,35.99887 -2.749291,5.69168 -8.615453,8.25587 -15.872257,6.93799 z m 7.044923,-8.04358 c 4.649468,-2.34459 5.118553,-19.82522 0.664306,-24.75554 -4.931673,-5.45877 -10.598497,0.60023 -10.594732,11.32793 0.004,11.42505 3.779067,16.52955 9.930426,13.42761 z m 39.383904,8.08925 -1.74873,-0.10809 -0.16762,-1.7747 c -0.0922,-0.97608 -0.16847,-2.56279 -0.1695,-3.52601 l -0.002,-1.75132 -0.99218,-0.164 c -0.54571,-0.0902 -4.95102,-0.16531 -9.78959,-0.16691 l -8.79742,-0.003 v -2.90899 -2.90898 l 2.34978,-3.65804 c 3.96751,-6.17646 11.36481,-16.77644 15.95957,-22.8693 l 2.34445,-3.10886 3.23299,0.004 c 1.77815,0.002 3.41159,0.11701 3.62987,0.25507 0.34559,0.21858 0.39054,2.04725 0.3478,14.15116 l -0.0491,13.90014 0.97513,0.002 c 0.53632,10e-4 1.6002,0.0774 2.36418,0.16915 l 1.38907,0.16684 v 3.27044 3.27044 l -1.38907,0.003 c -0.76398,0.002 -1.82658,0.0753 -2.36133,0.16367 l -0.97227,0.16077 -0.0861,3.51921 c -0.10448,4.27225 -0.11625,4.27984 -6.06812,3.91196 z m -1.97322,-19.20175 c 0.094,-2.36472 0.0769,-5.62691 -0.038,-7.24933 l -0.20883,-2.94984 -5.42396,7.00761 c -2.98317,3.85419 -5.46364,7.11638 -5.51215,7.24933 -0.0515,0.14101 2.224,0.24171 5.46194,0.24171 h 5.55013 z m 26.34382,18.4913 c -7.3021,-3.06616 -9.62264,-7.30228 -7.79515,-14.22996 0.68125,-2.58249 1.97959,-4.2193 5.54619,-6.99206 0.38919,-0.30256 0.43776,-0.44912 0.18362,-0.55404 -9.46514,-3.90767 -5.85122,-17.84674 5.17235,-19.94998 13.08335,-2.49624 21.55859,12.8557 10.9647,19.8613 -0.58957,0.38987 -0.55726,0.42487 1.83196,1.98437 8.62746,5.63136 6.71133,17.03058 -3.33596,19.84591 -2.80608,0.78629 -10.72552,0.80801 -12.56771,0.0345 z m 9.68243,-6.43148 c 4.77688,-2.47898 1.6528,-9.83367 -3.92925,-9.25023 -5.88331,0.61493 -7.11624,7.97847 -1.57396,9.40034 0.53908,0.13831 1.21828,0.31239 1.50932,0.38684 0.99717,0.25511 2.98177,-0.0117 3.99389,-0.53695 z m -0.91033,-21.4147 c 3.32274,-2.30266 1.78694,-7.33029 -2.41576,-7.90831 -2.91961,-0.40155 -5.28907,1.76408 -5.29653,4.84091 -0.007,2.95534 5.00016,4.94691 7.71229,3.0674 z m -115.399188,27.682 -10.186459,-0.13702 -0.08285,-2.38125 c -0.168025,-4.82945 -0.192588,-4.77184 3.342992,-7.84076 11.18458,-9.70832 14.709642,-14.39813 14.725966,-19.59168 0.01405,-4.46989 -5.433908,-5.58895 -9.608565,-1.97369 -3.661323,3.1707 -10.334389,-0.39038 -7.755468,-4.13871 6.640338,-9.6514 22.569861,-6.53605 24.390666,4.7701 0.869185,5.39715 -2.997145,12.62263 -11.095926,20.73629 l -2.804317,2.80948 5.135776,0.16709 c 2.824677,0.0919 6.723973,0.16709 8.665105,0.16709 h 3.529327 v 3.83646 3.83646 l -4.034896,-0.0614 c -2.219192,-0.0338 -8.618802,-0.12308 -14.221354,-0.19844 z"
         id="path27"
         inkscape:connector-curvature="0" />
      <path
         style="fill:#777165;fill-opacity:1;stroke-width:0.26458332"
         d="m 86.27307,154.19726 c -4.575795,-0.68534 -9.749883,-5.9486 -11.287695,-11.48225 -0.977992,-3.51919 -0.624049,-16.52508 0.541605,-19.90161 2.14694,-6.21901 4.950857,-9.80278 8.540166,-10.91543 12.034329,-3.73054 20.343434,5.11945 20.323264,21.64623 -0.0188,15.40055 -6.193091,22.43899 -18.11734,20.65306 z m 6.746875,-8.00893 c 4.487704,-2.39163 5.039749,-19.81572 0.777298,-24.53375 -6.454929,-7.14483 -13.316612,4.82152 -10.36637,18.07831 1.409031,6.33142 5.126188,8.83384 9.589072,6.45544 z m 37.307765,4.31856 -0.19027,-3.67482 -9.76135,-0.19511 -9.76135,-0.19511 v -2.70217 -2.70217 l 2.28297,-3.54822 c 3.9022,-6.06485 10.81487,-15.99346 15.77976,-22.66436 l 2.60918,-3.50573 h 2.32712 c 1.27991,0 2.87951,0.0757 3.55466,0.16826 l 1.22756,0.16825 v 13.96709 13.96709 l 2.38125,0.18628 2.38125,0.18629 v 3.27316 3.27317 h -2.38125 -2.38125 l -0.002,2.44739 c -0.001,1.34607 -0.0774,3.07247 -0.16915,3.83646 l -0.16685,1.38906 h -3.76985 -3.76986 l -0.19027,-3.67481 z m 0.13078,-18.60688 c 0,-6.36579 -0.0539,-7.40798 -0.36598,-7.07761 -0.20128,0.21309 -2.48045,3.12587 -5.06481,6.47284 -2.58436,3.34698 -5.04905,6.5319 -5.47709,7.07761 l -0.77826,0.99219 h 5.84307 5.84307 z m 25.79687,21.41133 c -6.63277,-2.80538 -8.9998,-6.95097 -7.53734,-13.20082 0.6962,-2.97522 3.57259,-6.86381 5.53877,-7.48785 0.81046,-0.25723 0.65886,-0.78503 -0.38733,-1.34843 -10.54356,-5.67808 -2.86276,-20.22271 10.36855,-19.63425 10.27099,0.4568 15.15347,14.43518 6.87204,19.6744 l -1.13945,0.72087 2.66806,1.7841 c 3.88646,2.59882 4.83556,4.095 5.09114,8.0258 0.52702,8.10525 -4.20221,11.96897 -14.99215,12.24839 l -4.36562,0.11306 z m 10.11141,-6.10229 c 4.05885,-2.09891 2.2008,-9.03514 -2.51161,-9.376 -6.98029,-0.50491 -9.34879,7.21732 -2.91772,9.51289 1.65279,0.58996 4.14529,0.52712 5.42933,-0.13689 z m -0.95626,-21.41334 c 3.88989,-2.61662 1.1711,-8.59877 -3.6605,-8.05418 -3.46694,0.39077 -5.31189,4.96451 -2.95379,7.32262 1.45227,1.45227 4.96525,1.84082 6.61429,0.73156 z M 39.871766,152.56113 c -0.210757,-1.05379 -0.208609,-3.6697 0.0045,-5.44343 l 0.165235,-1.37545 3.732765,-3.25476 c 9.60503,-8.37501 12.840958,-12.4201 14.033163,-17.54225 1.304842,-5.60606 -4.869974,-7.63875 -9.93484,-3.27043 -3.686166,3.17921 -9.917121,-1.11333 -7.003482,-4.82475 9.007552,-11.4739 27.62712,-2.75306 23.354216,10.9384 -1.280673,4.10359 -5.388859,9.96044 -10.644962,15.17604 l -2.694187,2.67342 2.943942,0.16965 c 1.619168,0.0933 5.47402,0.17018 8.566338,0.17084 l 5.622396,0.001 v 3.70417 3.70416 H 54.026975 40.037131 Z"
         id="path25"
         inkscape:connector-curvature="0" />
      <path
         style="fill:#777165;fill-opacity:1;stroke-width:0.26458332"
         d="m 87.199111,154.17554 c -6.740477,-0.46072 -12.220996,-7.28772 -12.731057,-15.85889 -1.160584,-19.50276 5.409938,-29.0424 18.419599,-26.74313 10.314917,1.82301 15.296577,22.6939 8.593767,36.00391 -2.67776,5.31732 -6.588503,7.124 -14.282309,6.59811 z m 5.336567,-7.70168 c 2.827724,-0.86543 3.811923,-3.53956 3.973012,-10.79491 0.250204,-11.26896 -1.631989,-15.89308 -6.469078,-15.89308 -5.104755,0 -7.438822,4.67716 -7.129966,14.2875 0.340318,10.58929 3.258955,14.34915 9.626032,12.40049 z m 38.412032,7.5305 c -0.37108,-0.0985 -0.45072,-0.62815 -0.52917,-3.51938 -0.0508,-1.87188 -0.15625,-3.46722 -0.23436,-3.54519 -0.0781,-0.078 -4.51319,-0.22566 -9.85573,-0.32819 l -9.71371,-0.18642 v -2.68063 -2.68063 l 3.65362,-5.5458 c 4.08901,-6.20666 9.15219,-13.46426 13.88262,-19.89944 l 3.16051,-4.29948 h 1.51795 c 0.83488,0 2.42889,0.077 3.54225,0.17112 l 2.0243,0.17111 v 13.94948 13.94947 l 0.99218,0.164 c 0.54571,0.0902 1.61727,0.16531 2.38125,0.16691 l 1.38907,0.003 v 3.30729 3.3073 h -2.38125 -2.38125 v 1.41456 c 0,0.77801 -0.0774,2.50441 -0.17191,3.83646 l -0.17192,2.42189 -3.33381,-0.0307 c -1.8336,-0.0169 -3.53039,-0.0829 -3.77064,-0.14665 z m -0.48922,-22.21563 c 0,-7.41205 -0.0106,-7.56263 -0.48744,-6.94531 -0.26809,0.34704 -2.785,3.60755 -5.59314,7.24557 -2.80814,3.63802 -5.22275,6.76342 -5.3658,6.94532 -0.20639,0.26245 0.94824,0.33073 5.59315,0.33073 h 5.85323 z m 27.28807,21.99482 c -10.60304,-2.98981 -12.92379,-16.82275 -3.54172,-21.11055 0.81027,-0.37031 0.74778,-0.88845 -0.16403,-1.35996 -10.28612,-5.31916 -3.70486,-19.48452 9.09372,-19.57314 11.06952,-0.0767 16.71061,13.72521 7.99059,19.55033 l -1.18071,0.78873 2.22934,1.47936 c 9.1254,6.05549 7.20221,17.36282 -3.39731,19.97432 -2.47009,0.60858 -9.21714,0.76206 -11.02988,0.25091 z m 8.42527,-6.54716 c 2.80471,-1.43313 3.31256,-5.26874 1.02605,-7.74931 -4.08251,-4.429 -12.35731,0.27116 -9.48253,5.38615 1.48305,2.63873 5.64244,3.80107 8.45648,2.36316 z m -0.50808,-21.55119 c 3.76883,-3.17126 0.29448,-9.1473 -4.60338,-7.91802 -2.56506,0.64379 -4.17606,4.49668 -2.81418,6.73043 1.18324,1.94073 5.66897,2.65893 7.41756,1.18759 z M 39.83999,151.81162 c -0.100624,-0.86698 -0.100205,-2.5697 9.26e-4,-3.78382 l 0.183884,-2.20749 3.335156,-2.89691 c 12.010356,-10.43215 16.207895,-16.79952 14.223452,-21.57593 -1.187427,-2.85805 -6.355968,-2.71746 -9.756465,0.26539 -2.149733,1.88571 -3.888863,1.72101 -6.472229,-0.6129 -1.857848,-1.67846 -1.919037,-2.23711 -0.449852,-4.10715 8.656879,-11.01882 26.945823,-3.22245 23.544625,10.03681 -1.156642,4.50906 -6.653276,12.25462 -12.396592,17.4686 -1.721854,1.56316 -1.834262,1.54072 7.827986,1.5628 l 8.135938,0.0186 v 3.70417 3.70416 H 54.019881 40.022942 Z"
         id="path23"
         inkscape:connector-curvature="0" />
    </g>
  </g>
</svg>
